<svg width="14" height="13" viewBox="0 0 14 13" fill="none" xmlns="http://www.w3.org/2000/svg">
<path d="M12.972 0.251007C12.7424 0.123393 12.4899 0.0422608 12.229 0.0122449C11.968 -0.0177711 11.7037 0.00391714 11.4511 0.076071C11.1985 0.148225 10.9626 0.269431 10.7569 0.432766C10.5511 0.596101 10.3796 0.798365 10.252 1.02801L6.53904 7.71001L4.41404 5.58501C4.22955 5.39399 4.00886 5.24162 3.76485 5.1368C3.52084 5.03199 3.2584 4.97681 2.99284 4.97451C2.72728 4.9722 2.46392 5.0228 2.21813 5.12336C1.97234 5.22393 1.74904 5.37243 1.56125 5.56022C1.37347 5.748 1.22496 5.97131 1.1244 6.2171C1.02384 6.46289 0.973232 6.72625 0.975539 6.99181C0.977847 7.25737 1.03302 7.51981 1.13784 7.76382C1.24266 8.00782 1.39502 8.22851 1.58604 8.41301L5.58604 12.413C5.96404 12.792 6.47404 13 7.00004 13L7.27704 12.98C7.58359 12.9371 7.876 12.8237 8.13126 12.6486C8.38652 12.4735 8.59765 12.2416 8.74804 11.971L13.748 2.97101C13.8757 2.74146 13.9569 2.48901 13.987 2.22809C14.0171 1.96716 13.9955 1.70286 13.9234 1.45028C13.8513 1.19771 13.7302 0.961795 13.567 0.756023C13.4038 0.55025 13.2016 0.378645 12.972 0.251007Z" fill="#004725"/>
</svg>
