<svg width="109" height="109" viewBox="0 0 109 109" fill="none" xmlns="http://www.w3.org/2000/svg">
<g filter="url(#filter0_i_1_360)">
<path d="M42.6908 78.2686C40.6232 81.9651 34.0368 90.4444 17.5714 89.1081C16.7453 89.041 15.9797 88.6486 15.443 88.017C14.9063 87.3855 14.6424 86.5666 14.7095 85.7405C16.0458 69.2751 25.4763 64.1423 29.4578 62.6979C29.8438 62.5584 30.2535 62.4962 30.6635 62.515C31.0735 62.5338 31.4758 62.6332 31.8474 62.8075C32.219 62.9817 32.5527 63.2275 32.8293 63.5307C33.1059 63.8339 33.3201 64.1887 33.4597 64.5747C33.5992 64.9607 33.6614 65.3704 33.6426 65.7804C33.6238 66.1904 33.5244 66.5927 33.3501 66.9643C33.1758 67.3359 32.9301 67.6696 32.6269 67.9462C32.3237 68.2229 31.9689 68.4371 31.5829 68.5766C28.9868 69.5142 23.1641 72.7373 21.3517 82.9954C31.7678 82.861 35.8955 77.6348 37.2317 75.2233C37.4317 74.8649 37.7003 74.5493 38.0222 74.2947C38.3441 74.04 38.713 73.8513 39.1079 73.7392C39.5027 73.6272 39.9158 73.594 40.3235 73.6415C40.7311 73.6891 41.1255 73.8165 41.4839 74.0165C41.8424 74.2164 42.1579 74.485 42.4125 74.8069C42.6672 75.1288 42.8559 75.4978 42.968 75.8926C43.0801 76.2875 43.1133 76.7005 43.0657 77.1082C43.0181 77.5159 42.8907 77.9102 42.6908 78.2686ZM94.7412 26.0581C94.7721 24.5319 94.2434 23.0471 93.2549 21.8839C92.2663 20.7207 90.8862 19.9595 89.375 19.744C84.5007 19.0544 71.9469 18.4863 60.7204 28.0273L39.9034 45.7334C39.5908 45.9996 39.2287 46.2016 38.838 46.3279C38.4473 46.4541 38.0356 46.5022 37.6263 46.4694C36.7997 46.403 36.0333 46.011 35.4957 45.3796C34.9581 44.7482 34.6934 43.9291 34.7597 43.1025C34.8261 42.2759 35.2181 41.5095 35.8495 40.9719L47.0301 31.4663C47.2643 31.2661 47.434 31.0011 47.518 30.7047C47.602 30.4083 47.5965 30.0937 47.5022 29.8004C47.4079 29.5071 47.229 29.2482 46.988 29.0563C46.747 28.8644 46.4546 28.7481 46.1477 28.7218L36.0013 27.8984C35.1811 27.8274 34.3549 27.9203 33.5709 28.1715C32.7869 28.4228 32.0606 28.8274 31.4344 29.3618L16.9954 41.6403C16.1099 42.3923 15.4516 43.3761 15.0943 44.4814C14.7369 45.5867 14.6947 46.7698 14.9723 47.8978C15.2499 49.0257 15.8364 50.054 16.6659 50.8672C17.4954 51.6804 18.5352 52.2464 19.6685 52.5015L34.4769 55.8079L50.2928 74.4179L51.1673 89.5734C51.235 90.733 51.6258 91.8505 52.2953 92.7996C52.9649 93.7487 53.8865 94.4917 54.9562 94.9444C55.579 95.2102 56.2407 95.3738 56.9156 95.4287C57.7328 95.4966 58.5553 95.4021 59.3358 95.1506C60.1162 94.8992 60.8392 94.4958 61.4631 93.9637L75.9093 81.6936C76.5361 81.1603 77.0514 80.5085 77.4256 79.7755C77.7999 79.0426 78.0257 78.2429 78.0901 77.4225L78.9135 67.2761C78.938 66.9682 78.8707 66.66 78.72 66.3903C78.5694 66.1207 78.3422 65.9017 78.0671 65.7611C77.7921 65.6205 77.4816 65.5646 77.1748 65.6004C76.868 65.6363 76.5787 65.7622 76.3434 65.9624L65.1593 75.4638C64.8321 75.7421 64.4511 75.95 64.04 76.0744C63.629 76.1989 63.1966 76.2373 62.7701 76.1873C62.3435 76.1372 61.9318 75.9997 61.5607 75.7834C61.1896 75.5672 60.8671 75.2767 60.6133 74.9302C60.1525 74.2707 59.9568 73.4619 60.0651 72.6647C60.1734 71.8675 60.5777 71.1402 61.1977 70.6274L81.9376 53.0013C93.1723 43.457 94.636 30.9759 94.7418 26.0503L94.7412 26.0581Z" fill="#BADA50"/>
</g>
<defs>
<filter id="filter0_i_1_360" x="14.6992" y="19.4058" width="80.0435" height="78.0444" filterUnits="userSpaceOnUse" color-interpolation-filters="sRGB">
<feFlood flood-opacity="0" result="BackgroundImageFix"/>
<feBlend mode="normal" in="SourceGraphic" in2="BackgroundImageFix" result="shape"/>
<feColorMatrix in="SourceAlpha" type="matrix" values="0 0 0 0 0 0 0 0 0 0 0 0 0 0 0 0 0 0 127 0" result="hardAlpha"/>
<feOffset dy="2"/>
<feGaussianBlur stdDeviation="2"/>
<feComposite in2="hardAlpha" operator="arithmetic" k2="-1" k3="1"/>
<feColorMatrix type="matrix" values="0 0 0 0 1 0 0 0 0 1 0 0 0 0 1 0 0 0 0.25 0"/>
<feBlend mode="normal" in2="shape" result="effect1_innerShadow_1_360"/>
</filter>
</defs>
</svg>
