<svg width="73" height="62" viewBox="0 0 73 62" fill="none" xmlns="http://www.w3.org/2000/svg">
<g filter="url(#filter0_i_1_353)">
<path d="M62.6075 19.4663C62.5558 20.249 62.2732 20.9988 61.7954 21.6208C61.3175 22.2429 60.666 22.7093 59.9231 22.961C59.1802 23.2128 58.3793 23.2386 57.6218 23.0351C56.8642 22.8317 56.184 22.4082 55.6671 21.8182C55.1503 21.2282 54.82 20.4982 54.718 19.7205C54.616 18.9428 54.7469 18.1523 55.0942 17.4489C55.4415 16.7456 55.9896 16.1611 56.6691 15.7693C57.3486 15.3774 58.129 15.1959 58.9117 15.2476C59.9612 15.3169 60.9402 15.8004 61.6333 16.5915C62.3265 17.3827 62.6769 18.4168 62.6075 19.4663ZM57.1687 41.6296C56.386 41.5778 55.6055 41.7594 54.926 42.1512C54.2465 42.5431 53.6985 43.1276 53.3512 43.8309C53.0039 44.5342 52.873 45.3247 52.9749 46.1025C53.0769 46.8802 53.4072 47.6102 53.9241 48.2002C54.441 48.7902 55.1212 49.2137 55.8787 49.4171C56.6363 49.6205 57.4372 49.5947 58.18 49.343C58.9229 49.0912 59.5745 48.6248 60.0523 48.0028C60.5301 47.3808 60.8128 46.631 60.8645 45.8483C60.9338 44.7988 60.5834 43.7647 59.8903 42.9735C59.1972 42.1823 58.2182 41.6989 57.1687 41.6296ZM26.6433 22.3896C25.5997 22.3207 24.5591 22.5627 23.6531 23.0852C22.7471 23.6076 22.0164 24.387 21.5533 25.3248C21.0903 26.2625 20.9157 27.3165 21.0517 28.3535C21.1876 29.3905 21.628 30.3638 22.3172 31.1505C23.0064 31.9372 23.9133 32.5018 24.9234 32.773C25.9335 33.0442 27.0013 33.0098 27.9918 32.6742C28.9823 32.3385 29.8511 31.7167 30.4882 30.8873C31.1253 30.0579 31.5021 29.0582 31.5711 28.0146C31.6635 26.6153 31.1963 25.2365 30.2721 24.1816C29.348 23.1267 28.0427 22.4821 26.6433 22.3896ZM72.5384 9.52363L69.401 57.0112C69.3085 58.4105 68.6639 59.7159 67.6091 60.64C66.5542 61.5642 65.1754 62.0314 63.776 61.9389L5.73565 58.1043C4.33627 58.0118 3.03092 57.3672 2.10678 56.3123C1.18265 55.2574 0.715412 53.8786 0.807868 52.4793L3.94534 4.99172C4.03779 3.59234 4.68237 2.287 5.73726 1.36286C6.79215 0.438717 8.17095 -0.0285168 9.57034 0.0639397L67.6107 3.89862C69.01 3.99108 70.3154 4.63565 71.2395 5.69055C72.1637 6.74544 72.6309 8.12424 72.5384 9.52363ZM50.0384 29.2348L65.8676 30.2806L67.262 9.17502L51.4329 8.12919L50.0384 29.2348ZM38.401 43.7017C37.7578 40.4577 35.9152 37.5755 33.2407 35.6303C34.8201 34.2549 35.9556 32.4415 36.5033 30.42C37.0509 28.3984 36.986 26.2599 36.3168 24.2753C35.6476 22.2907 34.4042 20.5495 32.7442 19.2724C31.0842 17.9954 29.0825 17.2399 26.9926 17.1018C24.9028 16.9637 22.8191 17.4493 21.0055 18.4969C19.192 19.5445 17.7303 21.1069 16.8058 22.9862C15.8813 24.8655 15.5356 26.9769 15.8125 29.0529C16.0894 31.1289 16.9765 33.0759 18.3612 34.6472C15.4557 36.2257 13.2505 38.8397 12.1839 41.9696C11.9642 42.6359 12.0181 43.3621 12.3339 43.9886C12.6497 44.6151 13.2014 45.0905 13.8677 45.3102C14.5339 45.5299 15.2602 45.4759 15.8867 45.1601C16.5132 44.8444 16.9885 44.2927 17.2082 43.6264C18.3022 40.3037 21.9073 37.975 25.5975 38.2188C29.2876 38.4626 32.5588 41.239 33.2023 44.6831C33.3324 45.3725 33.7311 45.982 34.3106 46.3774C34.8901 46.7728 35.6029 46.9219 36.2923 46.7918C36.9817 46.6616 37.5912 46.2629 37.9866 45.6835C38.3821 45.104 38.5311 44.3911 38.401 43.7017ZM64.1246 56.6625L65.519 35.557L49.6898 34.5112L48.2954 55.6167L64.1246 56.6625Z" fill="#BADA50"/>
</g>
<defs>
<filter id="filter0_i_1_353" x="0.796387" y="0.0524902" width="71.7534" height="63.8979" filterUnits="userSpaceOnUse" color-interpolation-filters="sRGB">
<feFlood flood-opacity="0" result="BackgroundImageFix"/>
<feBlend mode="normal" in="SourceGraphic" in2="BackgroundImageFix" result="shape"/>
<feColorMatrix in="SourceAlpha" type="matrix" values="0 0 0 0 0 0 0 0 0 0 0 0 0 0 0 0 0 0 127 0" result="hardAlpha"/>
<feOffset dy="2"/>
<feGaussianBlur stdDeviation="2"/>
<feComposite in2="hardAlpha" operator="arithmetic" k2="-1" k3="1"/>
<feColorMatrix type="matrix" values="0 0 0 0 0 0 0 0 0 0 0 0 0 0 0 0 0 0 0.25 0"/>
<feBlend mode="normal" in2="shape" result="effect1_innerShadow_1_353"/>
</filter>
</defs>
</svg>
