<svg width="77" height="67" viewBox="0 0 77 67" fill="none" xmlns="http://www.w3.org/2000/svg">
<g filter="url(#filter0_i_1_371)">
<path d="M67.0162 0.363864L5.29957 4.78777C3.81154 4.89443 2.42684 5.58784 1.45007 6.71546C0.473296 7.84307 -0.015525 9.31252 0.091138 10.8005L3.7107 61.296C3.81736 62.784 4.51077 64.1687 5.63838 65.1455C6.766 66.1223 8.23545 66.6111 9.72347 66.5044L71.4401 62.0805C72.9281 61.9738 74.3129 61.2804 75.2896 60.1528C76.2664 59.0252 76.7552 57.5558 76.6486 56.0677L73.029 5.57229C72.9223 4.08427 72.2289 2.69956 71.1013 1.72279C69.9737 0.746022 68.5042 0.257201 67.0162 0.363864ZM30.9103 52.297C31.3288 52.919 31.4831 53.6818 31.3392 54.4176C31.1953 55.1533 30.765 55.8018 30.143 56.2203C29.521 56.6388 28.7582 56.7931 28.0224 56.6492C27.2866 56.5053 26.6382 56.075 26.2197 55.4529L13.5909 36.6202C13.3181 36.2136 13.1563 35.7429 13.1213 35.2546C13.0863 34.7662 13.1793 34.2772 13.3913 33.8359L23.2049 13.3945C23.5276 12.7193 24.1053 12.2 24.8109 11.9508C25.5165 11.7016 26.2922 11.7429 26.9674 12.0656C27.6425 12.3883 28.1618 12.966 28.411 13.6716C28.6602 14.3772 28.6189 15.1529 28.2962 15.8281L19.157 34.8113L30.9103 52.297ZM63.3674 33.0521L53.5538 53.4936C53.231 54.1664 52.654 54.6834 51.9499 54.9309C51.2459 55.1783 50.4723 55.136 49.7995 54.8131C49.1267 54.4902 48.6097 53.9132 48.3622 53.2092C48.1148 52.5051 48.1572 51.7316 48.4801 51.0587L57.6017 32.0767L45.8469 14.57C45.6397 14.262 45.4951 13.9162 45.4215 13.5524C45.348 13.1885 45.3468 12.8138 45.418 12.4494C45.4893 12.0851 45.6316 11.7384 45.8368 11.4291C46.0421 11.1198 46.3062 10.8539 46.6142 10.6467C46.9222 10.4395 47.268 10.295 47.6319 10.2214C47.9957 10.1478 48.3705 10.1466 48.7348 10.2179C49.0991 10.2891 49.4458 10.4314 49.7552 10.6367C50.0645 10.8419 50.3303 11.1061 50.5375 11.4141L63.1664 30.2468C63.4431 30.6557 63.6074 31.1301 63.6427 31.6226C63.678 32.115 63.5831 32.608 63.3674 33.0521Z" fill="#BADA50"/>
</g>
<defs>
<filter id="filter0_i_1_371" x="0.0766602" y="0.349609" width="76.5864" height="68.1694" filterUnits="userSpaceOnUse" color-interpolation-filters="sRGB">
<feFlood flood-opacity="0" result="BackgroundImageFix"/>
<feBlend mode="normal" in="SourceGraphic" in2="BackgroundImageFix" result="shape"/>
<feColorMatrix in="SourceAlpha" type="matrix" values="0 0 0 0 0 0 0 0 0 0 0 0 0 0 0 0 0 0 127 0" result="hardAlpha"/>
<feOffset dy="2"/>
<feGaussianBlur stdDeviation="2"/>
<feComposite in2="hardAlpha" operator="arithmetic" k2="-1" k3="1"/>
<feColorMatrix type="matrix" values="0 0 0 0 0 0 0 0 0 0 0 0 0 0 0 0 0 0 0.25 0"/>
<feBlend mode="normal" in2="shape" result="effect1_innerShadow_1_371"/>
</filter>
</defs>
</svg>
