<svg width="78" height="65" viewBox="0 0 78 65" fill="none" xmlns="http://www.w3.org/2000/svg">
<g filter="url(#filter0_i_19_1728)">
<rect y="5.21924" width="73" height="59" rx="8" transform="rotate(-4.1 0 5.21924)" fill="#BADA50"/>
</g>
<g clip-path="url(#clip0_19_1728)">
<path d="M46.1565 35.8863L39.7026 31.7319L39.0319 22.3749C38.9645 21.4341 38.1495 20.7281 37.2086 20.7955C36.2678 20.863 35.5618 21.678 35.6293 22.6188L36.361 32.8265C36.3994 33.3624 36.6874 33.8497 37.1391 34.1388L44.31 38.7548C44.6327 38.9626 44.9979 39.0475 45.3535 39.0221C45.8723 38.9849 46.366 38.7152 46.6673 38.2421C47.1785 37.4513 46.9489 36.3956 46.1565 35.8863Z" fill="#062014"/>
<path d="M36.4782 10.6048C24.3667 11.473 15.2209 22.0313 16.089 34.1427C16.9572 46.2541 27.5155 55.4 39.6269 54.5319C51.7383 53.6637 60.8842 43.1054 60.016 30.994C59.1479 18.8826 48.5896 9.73668 36.4782 10.6048ZM39.383 51.1293C29.1498 51.8629 20.2251 44.132 19.4916 33.8988C18.758 23.6656 26.4889 14.7409 36.7221 14.0074C46.957 13.2737 55.88 21.0047 56.6135 31.2379C57.347 41.4711 49.6162 50.3958 39.383 51.1293Z" fill="#062014"/>
</g>
<defs>
<filter id="filter0_i_19_1728" x="0.55127" y="0.55127" width="75.9292" height="64.9658" filterUnits="userSpaceOnUse" color-interpolation-filters="sRGB">
<feFlood flood-opacity="0" result="BackgroundImageFix"/>
<feBlend mode="normal" in="SourceGraphic" in2="BackgroundImageFix" result="shape"/>
<feColorMatrix in="SourceAlpha" type="matrix" values="0 0 0 0 0 0 0 0 0 0 0 0 0 0 0 0 0 0 127 0" result="hardAlpha"/>
<feOffset dy="2"/>
<feGaussianBlur stdDeviation="2"/>
<feComposite in2="hardAlpha" operator="arithmetic" k2="-1" k3="1"/>
<feColorMatrix type="matrix" values="0 0 0 0 0 0 0 0 0 0 0 0 0 0 0 0 0 0 0.25 0"/>
<feBlend mode="normal" in2="shape" result="effect1_innerShadow_19_1728"/>
</filter>
<clipPath id="clip0_19_1728">
<rect width="44.0397" height="44.0397" fill="white" transform="translate(14.5146 12.1792) rotate(-4.1)"/>
</clipPath>
</defs>
</svg>
