<svg width="168" height="168" viewBox="0 0 168 168" fill="none" xmlns="http://www.w3.org/2000/svg">
<g filter="url(#filter0_d_5_11)">
<path d="M39 83.9998C39 59.1469 59.1472 38.9998 84 38.9998V38.9998C108.853 38.9998 129 59.1469 129 83.9998V83.9998C129 108.853 108.853 129 84 129V129C59.1472 129 39 108.853 39 83.9998V83.9998Z" fill="#65E996"/>
<path d="M39 83.9998C39 59.1469 59.1472 38.9998 84 38.9998V38.9998C108.853 38.9998 129 59.1469 129 83.9998V83.9998C129 108.853 108.853 129 84 129V129C59.1472 129 39 108.853 39 83.9998V83.9998Z" stroke="#062014" stroke-width="5"/>
</g>
<path d="M111.871 55.9998L135.913 80.0414C137.475 81.6035 137.475 84.1361 135.913 85.6982L111.871 109.74L122.501 82.8698L111.871 55.9998Z" fill="#65E996"/>
<defs>
<filter id="filter0_d_5_11" x="0.5" y="0.499756" width="167" height="167" filterUnits="userSpaceOnUse" color-interpolation-filters="sRGB">
<feFlood flood-opacity="0" result="BackgroundImageFix"/>
<feColorMatrix in="SourceAlpha" type="matrix" values="0 0 0 0 0 0 0 0 0 0 0 0 0 0 0 0 0 0 127 0" result="hardAlpha"/>
<feOffset/>
<feGaussianBlur stdDeviation="18"/>
<feComposite in2="hardAlpha" operator="out"/>
<feColorMatrix type="matrix" values="0 0 0 0 0 0 0 0 0 0 0 0 0 0 0 0 0 0 1 0"/>
<feBlend mode="normal" in2="BackgroundImageFix" result="effect1_dropShadow_5_11"/>
<feBlend mode="normal" in="SourceGraphic" in2="effect1_dropShadow_5_11" result="shape"/>
</filter>
</defs>
</svg>
