<svg width="164" height="47" viewBox="0 0 164 47" fill="none" xmlns="http://www.w3.org/2000/svg">
<path d="M26.4521 39.1266C23.5618 37.5628 13.393 31.9935 10.7208 29.6597C10.7208 29.6597 16.9091 26.4491 20.1537 22.405C22.5488 19.6102 26.9075 12.9211 27.2243 9.07799C27.5412 5.23717 26.192 3.43827 23.2472 2.34122C20.3024 1.24416 15.0625 3.54048 11.467 7.58232C7.87485 11.6242 4.43037 17.4649 2.9824 21.7077C1.58212 25.8143 -0.0521024 32.9622 0.00127387 39.9761C0.0035452 40.3894 0.289732 40.7483 0.688351 40.8562L0.866651 40.9039C2.19652 41.2571 3.60133 41.1958 4.89372 40.7233C5.256 40.5905 5.49903 40.2452 5.49903 39.8602C5.49903 39.8602 5.49903 39.858 5.49903 39.8545C5.49108 37.9478 5.49108 32.4523 5.77954 31.8163C5.77954 31.8163 15.8518 39.8069 23.957 42.9515C24.2739 43.0764 24.6361 43.0197 24.9098 42.813L25.2494 42.5586C25.9955 41.9953 26.5702 41.2344 26.9063 40.3633C26.9518 40.2441 26.9745 40.126 26.9745 40.0044C26.9745 39.6467 26.7826 39.3072 26.4521 39.1266ZM14.8126 10.8258C18.2071 7.18256 21.1996 5.9356 22.3478 7.18256C23.0973 8.03091 22.8963 12.175 17.8051 18.3121C15.1124 21.4068 11.7179 24.6366 6.77439 26.741C6.77439 26.741 9.12181 17.4638 14.8126 10.8258Z" fill="#F8FDE9"/>
<path d="M95.2099 15.6024C98.4273 16.6154 98.3171 16.5575 99.6379 17.1753C100.005 17.3468 100.414 17.2105 100.675 16.8312L100.837 16.595C101.253 15.9919 101.509 15.2299 101.571 14.4202L101.6 14.0318C101.642 13.4753 101.403 12.9506 101.009 12.7382C99.7503 12.0614 98.6544 11.3811 96.7465 10.7315C97.3348 8.99963 97.8231 7.68907 98.0991 6.91568C98.2706 6.43416 98.1343 5.89812 97.755 5.55629L97.5187 5.34278C96.9157 4.79766 96.1537 4.46037 95.344 4.37974L94.9556 4.34112C94.3991 4.28548 93.8744 4.60006 93.662 5.11679C93.2895 6.02418 92.6536 7.58914 91.9347 9.5493C91.7473 9.51523 91.5565 9.48229 91.36 9.44822C84.5642 8.29325 80.6314 8.70095 79.0858 10.8212C78.9835 10.9609 78.9165 11.137 78.895 11.3277L78.8166 12.0182C78.7019 13.0324 79.0596 14.0397 79.7251 14.5758C79.8898 14.7086 80.0874 14.7461 80.2737 14.6768C81.3185 14.293 85.1559 13.1107 90.3584 14.1874C89.3431 17.4535 88.4118 21.1263 88.028 24.556C87.5953 28.4184 86.5743 35.0223 88.6946 37.0495C88.8343 37.1823 89.0103 37.272 89.2011 37.3004L89.8916 37.4026C90.9058 37.5537 91.9131 37.0847 92.4491 36.2102C92.582 35.9944 92.6195 35.7343 92.5502 35.4902C92.1118 33.9252 92.0869 28.8681 93.3679 22.8707C93.938 20.2189 94.5796 17.767 95.2099 15.6024Z" fill="#F8FDE9"/>
<path d="M110.069 12.3839C110.239 11.9807 110.104 11.531 109.728 11.2437L109.494 11.0643C108.897 10.6077 108.143 10.3249 107.342 10.2568L106.957 10.2239C106.406 10.1773 105.886 10.4408 105.677 10.8746C104.547 13.2073 101.103 20.7197 100.102 27.1703C99.2278 32.8123 99.3277 36.1057 100.988 37.4571C101.125 37.5696 101.3 37.6434 101.489 37.6672L102.173 37.7536C103.177 37.8796 104.174 37.4867 104.704 36.7542C104.763 36.6338 104.756 36.5634 104.688 36.3578C104.254 35.0461 103.694 32.2376 105.388 25.7575C107.095 19.2274 109.326 14.1476 110.069 12.3839Z" fill="#F8FDE9"/>
<path d="M148.535 12.3839C148.706 11.9807 148.57 11.531 148.194 11.2437L147.961 11.0643C147.363 10.6077 146.609 10.3249 145.808 10.2568L145.423 10.2239C144.873 10.1773 144.353 10.4408 144.144 10.8746C143.014 13.2073 139.569 20.7197 138.569 27.1703C137.694 32.8123 137.794 36.1057 139.454 37.4571C139.592 37.5696 139.767 37.6434 139.955 37.6672L140.639 37.7536C141.643 37.8796 142.64 37.4867 143.17 36.7542C143.229 36.6338 143.223 36.5634 143.154 36.3578C142.721 35.0461 142.161 32.2376 143.854 25.7575C145.561 19.2274 147.792 14.1476 148.535 12.3839Z" fill="#F8FDE9"/>
<path d="M109.577 10.0524C110.778 10.066 112.266 7.97639 112.983 5.99125C113.557 4.38996 113.63 3.12369 113.59 2.34008C113.537 1.23735 112.767 0.272035 111.684 0.0460375C111.632 0.0346808 111.581 0.0267312 111.531 0.0176459C110.049 -0.211759 108.243 1.8279 107.526 4.25482C106.808 6.67833 106.831 9.95927 109.577 10.0524ZM108.901 3.62565C109.404 2.09023 110.338 1.01476 110.983 1.22713C111.628 1.43609 111.744 2.85681 111.241 4.39223C110.734 5.92765 109.804 7.00312 109.159 6.79075C108.514 6.57952 108.398 5.16448 108.901 3.62565Z" fill="#F8FDE9"/>
<path d="M83.1433 16.3883C80.1395 15.758 76.2248 19.7317 74.4918 24.6128C72.7588 29.4939 72.443 36.2102 78.0521 36.7019C80.4495 36.8564 84.2029 33.1257 85.3794 29.0498C85.4328 28.8647 85.4101 28.666 85.3226 28.4945L85.0921 28.0391C84.9104 27.6802 84.6424 27.3736 84.3108 27.1453C83.919 26.8762 83.3772 27.0215 83.1762 27.4531C81.9622 30.0697 80.1917 31.747 79.0163 31.2916C77.7194 30.7885 77.6399 27.8778 78.838 24.7899C80.0361 21.7021 82.0587 19.6079 83.3557 20.111L84.589 20.3324C84.899 20.3881 85.2181 20.337 85.4953 20.1871L85.5475 20.1587C86.1074 19.8555 86.3266 19.1684 86.0551 18.5915C85.6701 17.7738 84.8547 16.7472 83.1433 16.3883Z" fill="#F8FDE9"/>
<path d="M55.1627 18.822C56.3029 10.9802 57.7486 4.74769 58.2732 2.60015C58.3936 2.1084 58.2324 1.58372 57.8655 1.26574L57.6373 1.06813C57.0547 0.563897 56.3426 0.276571 55.6078 0.249315L55.2546 0.235687C54.7493 0.216381 54.2984 0.56503 54.1451 1.09425C53.3638 3.78351 51.0924 12.0977 50.5507 19.5329C50.4224 19.0105 49.7807 17.064 47.2641 16.7085C44.3534 16.3008 40.8669 20.3483 39.5257 25.1261C39.4178 25.5099 39.3201 25.9051 39.2338 26.3072C38.0254 28.2969 35.7666 31.6857 30.7367 32.0889C27.742 32.2865 27.4365 28.9942 27.4365 28.9942C27.4365 28.9942 31.9928 29.7914 34.556 27.2293C37.118 24.6673 37.4179 21.8043 36.7535 20.0769C36.1879 18.68 34.1574 17.3479 31.6282 17.4467C29.7305 17.5489 25.4707 20.0088 23.5082 24.3027C22.3771 26.565 22.2783 31.3393 23.9239 32.986C24.9221 34.0354 26.9697 37.1301 32.5107 35.4323C34.4208 34.8281 36.7126 33.6833 38.9033 31.4881C39.2417 34.2228 40.5989 36.3873 43.7038 36.4487C46.0603 36.443 49.5104 32.4545 50.2713 28.3854L50.4383 28.1594C50.6666 32.7089 51.457 35.5311 52.8709 36.8257C53.006 36.9495 53.1707 37.0267 53.3456 37.0426L53.9747 37.1005C54.9003 37.1846 55.7736 36.6508 56.1938 35.7446C56.2983 35.5208 56.3131 35.2585 56.2336 35.02C55.7248 33.4857 53.9361 27.2611 55.1627 18.822ZM27.3025 26.2322C27.3025 26.2322 28.2985 22.2381 30.697 21.2092C33.0921 20.1768 34.422 21.6419 33.6895 23.1716C32.9592 24.7013 31.6612 26.0335 29.7975 26.498C27.9339 26.9647 27.3025 26.2322 27.3025 26.2322ZM48.2964 26.4559C47.3493 29.4825 45.5504 31.6153 44.2796 31.2155C43.0065 30.8192 42.7441 28.0425 43.6879 25.0125C44.635 21.986 46.4339 19.8532 47.707 20.2529C48.979 20.6493 49.2413 23.4271 48.2964 26.4559Z" fill="#F8FDE9"/>
<path d="M162.978 17.5626C162.114 16.9527 161.058 16.679 160.008 16.7926L159.791 16.8164C159.332 16.8664 158.953 17.1957 158.841 17.6443C158.325 19.7192 156.782 25.5588 155.262 27.7302C154.529 28.7614 153.465 30.4421 152.167 30.2173C150.869 29.9924 150.495 28.3707 150.769 26.9477C151.044 25.5247 151.992 21.5567 152.291 20.5834L152.518 19.7215C152.608 19.3785 152.494 19.0151 152.226 18.7845C151.51 18.1701 150.554 17.9089 149.624 18.0725L149.306 18.1281C149 18.1826 148.741 18.3848 148.618 18.671C147.97 20.1803 146.038 25.1556 146.601 29.6426C146.876 32.0639 147.799 33.9355 150.244 34.0354C152.691 34.1353 154.287 32.7123 154.287 32.7123C154.287 32.7123 150.169 39.9079 146.909 43.3354C146.781 43.4932 146.65 43.6352 146.529 43.7567C146.234 44.0508 146.186 44.5108 146.399 44.8685C146.936 45.7657 147.738 46.4755 148.694 46.9002L148.74 46.9207C149.077 47.0706 149.471 47.0047 149.74 46.7514C151.24 45.3387 156.133 40.3724 159.105 33.0882C161.001 28.3968 163.148 21.2591 163.348 19.5125L163.437 18.5665C163.475 18.1724 163.3 17.7897 162.978 17.5626Z" fill="#F8FDE9"/>
<path d="M71.8922 14.7427C71.8377 14.352 71.5788 14.0215 71.2131 13.8739C70.2319 13.4798 69.1417 13.4583 68.1457 13.8126L67.9401 13.8853C67.5052 14.0397 67.2133 14.4486 67.2088 14.9108C67.1872 17.0492 67.0384 23.0864 66.0617 25.552C65.5882 26.7251 64.942 28.6058 63.6269 28.6887C62.3129 28.7705 61.5725 27.2793 61.51 25.8325C61.4475 24.3856 61.4509 20.3052 61.5168 19.2888L61.5384 18.3973C61.5463 18.0429 61.3521 17.7147 61.0364 17.5535C60.1972 17.1219 59.208 17.089 58.3403 17.4626L58.0439 17.591C57.7577 17.7147 57.5533 17.9714 57.5 18.2792C57.2194 19.8975 56.4915 25.1852 58.0791 29.42C58.907 31.7118 60.238 33.3188 62.6411 32.8498C65.043 32.3807 66.2673 30.6273 66.2673 30.6273L65.6279 36.393C65.545 37.1437 65.9993 37.849 66.717 38.0841L66.926 38.1522C67.6869 38.4009 68.4921 38.4815 69.2859 38.3873C70.0593 38.2964 70.6532 37.6604 70.6918 36.8825L71.0382 29.8755C71.7969 24.8717 72.2318 17.432 72.0217 15.6853L71.8922 14.7427Z" fill="#F8FDE9"/>
<path d="M130.337 17.9805C127.935 18.4495 126.711 20.203 126.711 20.203L127.113 18.3132C127.196 17.5626 126.742 16.8573 126.024 16.6222L125.815 16.5541C125.054 16.3054 124.249 16.2247 123.455 16.319C122.682 16.4099 122.088 17.0458 122.049 17.8238L121.94 20.9559C121.788 21.961 121.648 23.0649 121.525 24.2005C120.856 25.3566 120.178 26.4298 119.542 27.3827C120.173 24.8104 120.18 22.7787 120.049 21.459C119.839 19.3047 118.245 17.4876 116.106 17.1401C116.006 17.123 115.905 17.1083 115.797 17.0981C112.875 16.7846 109.525 20.9468 108.339 25.7621C107.156 30.5807 107.496 37.012 112.889 36.9427C113.743 36.912 114.646 36.3328 115.509 35.4209C118.424 33.4573 120.248 30.5012 121.115 28.8125C120.914 31.713 120.844 34.2239 120.956 35.1449L121.087 36.0864C121.142 36.4771 121.401 36.8075 121.766 36.954C122.748 37.3481 123.838 37.3697 124.834 37.0154L125.039 36.9427C125.474 36.7882 125.766 36.3794 125.771 35.9172C125.792 33.7787 125.941 27.7415 126.918 25.276C127.391 24.1029 128.038 22.2222 129.353 22.1393C130.667 22.0575 131.407 23.5486 131.47 24.9966C131.532 26.4435 131.693 34.0331 131.627 35.0495L131.606 35.941C131.598 36.2954 131.792 36.6236 132.108 36.7848C132.947 37.2164 133.936 37.2493 134.803 36.8757L135.099 36.7474C135.385 36.6236 135.59 36.3669 135.643 36.0591C135.924 34.4408 136.487 25.644 134.899 21.4091C134.071 19.1184 132.739 17.5114 130.337 17.9805ZM113.291 31.6925C112.007 31.3382 111.652 28.5706 112.497 25.5134C113.344 22.4561 115.073 20.2666 116.357 20.6243C117.639 20.9786 117.996 23.7462 117.149 26.8035C116.3 29.8584 114.573 32.0491 113.291 31.6925Z" fill="#F8FDE9"/>
</svg>
