<svg width="231" height="329" viewBox="0 0 231 329" fill="none" xmlns="http://www.w3.org/2000/svg">
<path d="M1.13325 320.511C0.457081 320.033 0.296939 319.097 0.775567 318.42L8.57526 307.402C9.05389 306.725 9.99005 306.565 10.6662 307.044C11.3424 307.522 11.5025 308.459 11.0239 309.135L4.09083 318.929L13.8853 325.862C14.5615 326.341 14.7217 327.277 14.243 327.953C13.7644 328.63 12.8283 328.79 12.1521 328.311L1.13325 320.511ZM1.99988 319.287L1.74697 317.808C49.174 309.696 116.879 284.105 165.836 233.788C214.708 183.558 245.008 108.584 217.614 1.31294L219.067 0.941791L220.521 0.570642C248.173 108.854 217.586 184.902 167.986 235.88C118.47 286.772 50.1178 312.578 2.2528 320.766L1.99988 319.287Z" fill="#C2CCA7"/>
</svg>
