<svg width="231" height="329" viewBox="0 0 231 329" fill="none" xmlns="http://www.w3.org/2000/svg">
<path d="M230.056 320.511C230.732 320.033 230.892 319.097 230.413 318.42L222.614 307.402C222.135 306.725 221.199 306.565 220.523 307.044C219.847 307.522 219.686 308.459 220.165 309.135L227.098 318.929L217.304 325.862C216.627 326.341 216.467 327.277 216.946 327.953C217.425 328.63 218.361 328.79 219.037 328.311L230.056 320.511ZM229.189 319.287L229.442 317.808C182.015 309.696 114.31 284.105 65.3534 233.788C16.4813 183.558 -13.8192 108.584 13.5749 1.31294L12.1216 0.941791L10.6682 0.570642C-16.9844 108.854 13.6028 184.902 63.2032 235.88C112.719 286.772 181.071 312.578 228.936 320.766L229.189 319.287Z" fill="#C2CCA7"/>
</svg>
