<svg width="19" height="19" viewBox="0 0 19 19" fill="none" xmlns="http://www.w3.org/2000/svg">
<path d="M7.05279 8.66498L10.3669 11.9872C10.7262 12.3474 11.3769 12.3988 12.1018 12.0594C13.9468 11.3328 14.5606 11.1556 14.9111 11.5069L18.7206 15.3259C19.1709 15.7773 19.0508 16.5293 18.5472 17.0341C15.9324 19.6553 11.6824 19.6553 9.06766 17.0341L1.95126 9.90007C-0.65042 7.29197 -0.65042 3.07252 1.95126 0.464413C2.46545 -0.0510479 3.25508 -0.177877 3.72236 0.290559L7.53191 4.10952C7.8621 4.44053 7.68505 5.05706 6.96414 6.89402C6.62901 7.61108 6.68271 8.29398 7.05279 8.66498Z" fill="white"/>
</svg>
