<svg width="20" height="18" viewBox="0 0 20 18" fill="none" xmlns="http://www.w3.org/2000/svg">
<path d="M14.8124 0.520874H5.18742C4.03262 0.520874 2.92512 0.979615 2.10856 1.79618C1.29199 2.61274 0.833252 3.72024 0.833252 4.87504V13.125C0.833252 13.6968 0.945876 14.263 1.16469 14.7913C1.38351 15.3196 1.70424 15.7996 2.10856 16.2039C2.92512 17.0205 4.03262 17.4792 5.18742 17.4792H14.8124C15.9665 17.4768 17.0726 17.0173 17.8886 16.2012C18.7046 15.3852 19.1642 14.2791 19.1666 13.125V4.87504C19.1642 3.72099 18.7046 2.6149 17.8886 1.79886C17.0726 0.982815 15.9665 0.523296 14.8124 0.520874ZM11.4666 8.14754C11.0156 8.40475 10.5054 8.54001 9.98617 8.54001C9.46698 8.54001 8.95675 8.40475 8.50575 8.14754L2.22659 4.54504C2.30778 3.81657 2.65468 3.14359 3.20093 2.65484C3.74718 2.16609 4.45443 1.89587 5.18742 1.89587H14.8124C15.5448 1.89788 16.251 2.1688 16.7968 2.65717C17.3427 3.14554 17.6901 3.81736 17.7733 4.54504L11.4666 8.14754Z" fill="white"/>
</svg>
